<svg xmlns="http://www.w3.org/2000/svg" version="1.1" xmlns:xlink="http://www.w3.org/1999/xlink" width="1024" height="1024" viewBox="0 0 1024 1024"><title>ClipStack</title><defs><filter id="iconShadow" x="-20%" y="-20%" width="140%" height="140%"><feGaussianBlur in="SourceAlpha" stdDeviation="18"></feGaussianBlur><feOffset dy="14" result="o"></feOffset><feComponentTransfer in="o" result="s"><feFuncA type="linear" slope="0.30"></feFuncA></feComponentTransfer><feMerge><feMergeNode in="s"></feMergeNode><feMergeNode in="SourceGraphic"></feMergeNode></feMerge></filter><filter id="cardShadow" x="-20%" y="-20%" width="140%" height="140%"><feGaussianBlur in="SourceAlpha" stdDeviation="10"></feGaussianBlur><feOffset dy="8" result="o"></feOffset><feComponentTransfer in="o" result="s"><feFuncA type="linear" slope="0.22"></feFuncA></feComponentTransfer><feMerge><feMergeNode in="s"></feMergeNode><feMergeNode in="SourceGraphic"></feMergeNode></feMerge></filter><linearGradient x1="0" y1="0" x2="0" y2="1" id="SvgjsLinearGradient1000"><stop stop-color="#58a6ff" offset="0"></stop><stop stop-color="#1d5fd6" offset="1"></stop></linearGradient></defs><rect width="824" height="824" rx="185" ry="185" x="100" y="100" fill="url(#SvgjsLinearGradient1000)" filter="url(#iconShadow)"></rect><rect width="240" height="208" rx="34" ry="34" x="392" y="598" fill-opacity="0.42" fill="#ffffff"></rect><rect width="328" height="204" rx="40" ry="40" x="348" y="554" fill-opacity="0.72" fill="#ffffff"></rect><rect width="416" height="420" rx="48" ry="48" x="304" y="290" fill="#ffffff" filter="url(#cardShadow)"></rect><rect width="184" height="92" rx="46" ry="46" x="420" y="244" fill="#16418c"></rect><rect width="72" height="26" rx="13" ry="13" x="476" y="261" fill="#ffffff"></rect><rect width="248" height="46" rx="23" ry="23" x="366" y="392" fill="#3d7bf0"></rect><rect width="176" height="46" rx="23" ry="23" x="366" y="480" fill="#3d7bf0"></rect><rect width="212" height="46" rx="23" ry="23" x="366" y="568" fill="#3d7bf0"></rect></svg>